# xmcd
#
# Track frame offsets:
# 182
# 15200
# 29295
# 43462
# 60820
# 74757
# 89142
# 103825
# 119657
# 135437
#
# Disc length: 2045 seconds
#
#
# Revision: 0
# Processed by: cddbd v1.4PL0 Copyright (c) Steve Scherf et al.
# Submitted via: FreeRIP 2.12 
#
DISCID=8c07fb0a
DTITLE=Nitty Gritty Dirt Band - Super Hits Series
DYEAR=1900
DGENRE=
TTITLE0=I've Been Lookin'
TTITLE1=Down That Road Tonight
TTITLE2=Oh What A Love
TTITLE3=Workin' Man (Nowhere To Go)
TTITLE4=Baby's Got A Hold On Me
TTITLE5=Face On The Cutting Room Floor
TTITLE6=High Horse
TTITLE7=Telluride
TTITLE8=Keepin' The Road Hot
TTITLE9=Partners, Brothers and Friends
EXTD=
EXTT0=
EXTT1=
EXTT2=
EXTT3=
EXTT4=
EXTT5=
EXTT6=
EXTT7=
EXTT8=
EXTT9=
PLAYORDER=
